<svg id="Layer" enable-background="new 0 0 64 64" height="512" viewBox="0 0 64 64" width="512" xmlns="http://www.w3.org/2000/svg"><path d="m55 19v26l-22 9v-26z" fill="#4dd0e1"/><path d="m55 19-22 9-22-9 22-9z" fill="#e0f7fa"/><path d="m33 28v26l-22-9v-26z" fill="#4dd0e1"/><path d="m56.727 45.992c.053-.092.101-.187.139-.288.037-.097.071-.196.092-.298.004-.019.003-.039.006-.058.02-.112.034-.226.034-.341.001-.002.002-.004.002-.007v-26c0-.184-.033-.358-.079-.528-.011-.041-.024-.08-.037-.12-.056-.164-.126-.321-.22-.462-.001-.002-.002-.004-.003-.006-.097-.144-.217-.268-.347-.382-.032-.028-.064-.055-.098-.081-.139-.107-.287-.201-.451-.269-.003-.001-.004-.003-.007-.004l-22-9c-.484-.197-1.029-.197-1.514 0l-22 9c-.003.001-.004.003-.007.004-.164.068-.312.162-.451.269-.034.026-.066.052-.098.081-.13.114-.25.238-.347.382-.001.002-.002.004-.003.006-.094.141-.164.299-.22.462-.014.04-.026.079-.037.12-.048.17-.081.344-.081.528v26c0 .003.001.005.001.007.001.115.014.229.034.341.003.019.003.039.006.058.021.102.056.201.092.298.038.101.086.196.139.288.023.04.04.083.066.122.037.055.083.102.124.152.041.049.076.102.122.148.091.091.19.173.297.245.023.015.049.025.073.039.089.055.181.108.279.148.003.001.006.003.009.005l21.978 8.991c.001 0 .001.001.002.001l.021.008c.054.022.11.032.166.049.066.021.131.046.2.06.129.026.26.04.391.04s.262-.014.391-.039c.069-.014.133-.039.2-.06.055-.017.112-.027.166-.049l.021-.008c.001 0 .001-.001.002-.001l21.978-8.991c.003-.001.006-.003.009-.005.098-.041.189-.093.279-.148.023-.014.05-.024.073-.039.107-.072.206-.154.297-.245.045-.046.081-.098.122-.148.042-.051.088-.098.124-.152.025-.04.042-.083.065-.123zm-43.727-24.013 18 7.364v21.678l-18-7.364zm22 7.364 18-7.364v21.678l-18 7.364zm-2-17.182 16.718 6.839-16.718 6.839-16.718-6.839z" fill="#012e52"/></svg>